<?xml version="1.0" standalone="no"?>
<!DOCTYPE svg PUBLIC "-//W3C//DTD SVG 20010904//EN"
 "http://www.w3.org/TR/2001/REC-SVG-20010904/DTD/svg10.dtd">
<svg version="1.0" xmlns="http://www.w3.org/2000/svg"
 width="520.000000pt" height="520.000000pt" viewBox="0 0 520.000000 520.000000"
 preserveAspectRatio="xMidYMid meet">
<metadata>
Created by potrace 1.14, written by Peter Selinger 2001-2017
</metadata>
<g transform="translate(0.000000,520.000000) scale(0.100000,-0.100000)"
fill="#000000" stroke="none">
<path d="M2424 3468 c-218 -221 -434 -460 -642 -708 -190 -226 -173 -216 165
102 181 169 387 379 647 657 l59 63 203 -203 c144 -144 207 -200 218 -196 13
5 16 23 16 92 l0 86 73 -3 72 -3 5 -182 5 -183 197 -197 c109 -108 199 -195
201 -193 3 3 -78 95 -179 205 l-183 200 -3 200 -3 200 -115 0 -115 0 -10 -54
-10 -54 -175 189 c-99 107 -183 190 -195 192 -15 2 -74 -51 -231 -210z"/>
<path d="M2459 3282 c-190 -202 -435 -465 -498 -537 -57 -64 329 323 517 519
l172 180 197 -205 c296 -307 563 -573 462 -460 -164 183 -651 701 -659 701 -3
0 -89 -89 -191 -198z"/>
<path d="M2460 2905 l0 -96 88 3 87 3 0 90 0 90 -87 3 -88 3 0 -96z"/>
<path d="M2664 2987 c-3 -8 -4 -49 -2 -93 l3 -79 88 -3 87 -3 0 96 0 95 -85 0
c-62 0 -87 -4 -91 -13z"/>
<path d="M2467 2784 c-4 -4 -7 -47 -7 -96 l0 -88 90 0 91 0 -3 93 -3 92 -80 3
c-45 1 -84 0 -88 -4z"/>
<path d="M2664 2777 c-3 -8 -4 -49 -2 -93 l3 -79 88 -3 87 -3 0 96 0 95 -85 0
c-62 0 -87 -4 -91 -13z"/>
<path d="M2685 2398 c-50 -27 -56 -58 -19 -93 24 -23 24 -24 5 -30 -57 -18
-80 -108 -40 -159 59 -75 253 -66 294 15 24 46 14 119 -17 119 -6 0 -4 -8 5
-18 22 -24 22 -66 0 -88 -67 -67 -228 -53 -259 22 -10 25 -11 40 -3 63 14 39
38 53 78 45 20 -4 31 -2 31 5 0 6 -13 11 -28 11 -35 0 -52 16 -52 50 0 44 41
70 84 54 15 -6 15 -7 0 -19 -22 -15 -12 -45 15 -45 42 0 38 49 -5 68 -31 15
-63 15 -89 0z"/>
<path d="M2898 2399 c-21 -12 -24 -45 -5 -52 22 -8 40 9 34 32 -4 15 0 21 12
21 37 0 55 -46 27 -69 -8 -7 -52 -28 -98 -47 -46 -19 -89 -42 -95 -51 -16 -21
-17 -65 -1 -81 18 -18 63 -14 81 6 34 37 9 75 -30 47 -14 -11 -16 -16 -5 -26
20 -21 14 -31 -15 -27 -19 2 -29 9 -31 24 -3 24 20 46 68 64 150 54 191 99
140 150 -22 22 -55 25 -82 9z"/>
<path d="M788 2384 c21 -14 22 -22 22 -149 0 -127 -1 -135 -22 -149 -21 -15
-16 -16 72 -16 153 0 211 42 218 156 8 129 -46 174 -213 174 -93 0 -98 -1 -77
-16z m189 -14 c72 -44 72 -226 0 -270 -39 -24 -102 -27 -111 -4 -8 21 -8 279
1 287 13 14 79 6 110 -13z"/>
<path d="M1158 2390 c21 -9 22 -13 22 -153 0 -139 -1 -144 -22 -155 -19 -9 -9
-11 52 -11 67 -1 72 1 50 12 -22 11 -25 20 -28 75 l-3 62 34 0 c39 0 61 -21
71 -65 12 -53 28 -84 46 -90 20 -6 65 9 75 25 6 9 2 9 -13 1 -25 -13 -36 -2
-51 55 -11 40 -32 66 -61 77 -12 4 -11 6 5 12 52 20 81 69 65 110 -15 39 -65
55 -172 54 -66 0 -86 -3 -70 -9z m155 -11 c30 -16 37 -28 37 -70 0 -45 -24
-68 -76 -72 l-39 -2 -3 63 c-4 87 21 112 81 81z"/>
<path d="M1498 2390 c21 -9 22 -13 22 -153 0 -139 -1 -144 -22 -155 -18 -8 8
-11 115 -11 l137 -1 0 50 c0 28 -4 50 -10 50 -5 0 -10 -9 -10 -20 0 -37 -44
-70 -93 -70 -23 0 -48 5 -55 12 -7 7 -12 39 -12 76 l0 63 38 -3 c27 -2 40 -9
47 -25 11 -26 31 -32 21 -7 -3 9 -6 37 -7 62 0 41 -1 44 -10 22 -12 -31 -26
-40 -61 -40 -28 0 -28 1 -28 63 0 36 5 68 12 75 7 7 31 12 55 12 48 0 83 -26
83 -60 0 -41 16 -18 18 25 l2 45 -133 -1 c-89 0 -125 -3 -109 -9z"/>
<path d="M1919 2354 c-89 -203 -112 -250 -126 -266 -15 -17 -14 -18 33 -18 47
0 48 1 26 16 -26 18 -27 34 -7 75 16 29 17 30 83 27 l67 -3 15 -43 c14 -41 14
-44 -4 -58 -18 -13 -14 -14 44 -14 60 0 62 1 47 18 -9 10 -44 81 -77 158 -34
76 -66 143 -70 148 -6 6 -18 -10 -31 -40z m58 -150 c-2 -3 -29 -4 -59 -2 l-54
3 30 65 30 64 29 -62 c16 -35 27 -65 24 -68z"/>
<path d="M2158 2385 c21 -15 22 -23 22 -150 0 -127 -1 -135 -22 -149 -21 -15
-20 -16 32 -16 51 0 53 1 30 13 -24 12 -25 15 -28 142 -1 74 1 125 6 120 5 -6
33 -70 63 -142 30 -73 57 -133 60 -133 4 0 35 64 69 143 34 78 64 144 67 146
2 3 2 -55 1 -129 -3 -132 -3 -135 -28 -147 -22 -11 -17 -13 50 -12 61 0 71 2
53 11 -22 11 -23 16 -23 155 0 140 1 144 23 153 17 7 11 9 -27 7 l-50 -2 -57
-130 -58 -129 -16 39 c-9 22 -33 81 -53 130 l-37 90 -50 3 c-48 3 -49 2 -27
-13z"/>
<path d="M3058 2385 c21 -15 22 -23 22 -150 0 -127 -1 -135 -22 -149 -21 -15
-17 -16 70 -16 133 0 186 27 184 93 -1 36 -40 77 -73 77 -17 0 -15 5 15 34 42
39 44 55 12 93 -23 27 -29 28 -128 31 -97 3 -102 2 -80 -13z m154 -12 c23 -20
24 -85 2 -107 -8 -9 -31 -16 -50 -16 l-34 0 0 63 c0 35 3 67 7 70 12 13 56 7
75 -10z m28 -158 c22 -20 26 -65 10 -95 -6 -11 -28 -25 -50 -31 -58 -18 -70
-4 -70 84 l0 70 45 -6 c25 -2 55 -13 65 -22z"/>
<path d="M3370 2387 c24 -12 25 -17 30 -133 6 -142 17 -167 82 -185 34 -9 51
-9 83 2 59 21 74 58 75 191 0 99 2 108 22 122 21 15 20 16 -32 15 -47 0 -52
-2 -32 -11 12 -6 25 -22 28 -35 10 -37 -2 -195 -16 -224 -23 -49 -90 -64 -131
-30 -23 18 -24 27 -27 150 -4 129 -3 131 20 140 17 7 5 10 -52 10 -67 1 -72
-1 -50 -12z"/>
<path d="M3738 2390 c21 -9 22 -13 22 -155 0 -142 -1 -146 -22 -155 -17 -6 -3
-9 52 -9 55 0 69 3 53 9 -22 9 -23 13 -23 155 0 142 1 146 23 155 16 6 2 9
-53 9 -55 0 -69 -3 -52 -9z"/>
<path d="M3928 2384 c21 -14 22 -22 22 -149 0 -127 -1 -135 -22 -149 -21 -15
-12 -16 116 -16 l138 0 -6 23 c-3 12 -6 38 -6 57 l-1 35 -14 -40 c-8 -22 -15
-41 -15 -42 0 -5 -68 -23 -89 -23 -47 0 -51 14 -51 156 0 126 1 134 22 148 21
15 19 16 -47 16 -66 0 -68 -1 -47 -16z"/>
<path d="M4238 2384 c21 -14 22 -22 22 -149 0 -127 -1 -135 -22 -149 -21 -15
-16 -16 72 -16 153 0 211 42 218 156 8 129 -46 174 -213 174 -93 0 -98 -1 -77
-16z m189 -14 c35 -21 53 -67 53 -135 0 -68 -18 -114 -53 -135 -39 -24 -102
-27 -111 -4 -8 21 -8 279 1 287 13 14 79 6 110 -13z"/>
</g>
</svg>
