<?xml version="1.0" encoding="UTF-8" standalone="no" ?>
<!DOCTYPE svg PUBLIC "-//W3C//DTD SVG 1.1//EN" "http://www.w3.org/Graphics/SVG/1.1/DTD/svg11.dtd">
<svg xmlns="http://www.w3.org/2000/svg" xmlns:xlink="http://www.w3.org/1999/xlink" version="1.1" width="400" height="400" viewBox="0 0 400 400" xml:space="preserve">
<desc>Created with Fabric.js 3.6.2</desc>
<defs>
</defs>
<g transform="matrix(4.06 0 0 4.06 200 200)" id="Layer_1"  >
<path style="stroke: none; stroke-width: 1; stroke-dasharray: none; stroke-linecap: butt; stroke-dashoffset: 0; stroke-linejoin: miter; stroke-miterlimit: 4; fill: rgb(0,0,0); fill-rule: nonzero; opacity: 1;"  transform=" translate(-28.21, -30.34)" d="M 52.837 15.065 c -1.811 0.805 -3.76 1.348 -5.805 1.591 c 2.088 -1.25 3.689 -3.23 4.444 -5.592 c -1.953 1.159 -4.115 2 -6.418 2.454 c -1.843 -1.964 -4.47 -3.192 -7.377 -3.192 c -5.581 0 -10.106 4.525 -10.106 10.107 c 0 0.791 0.089 1.562 0.262 2.303 c -8.4 -0.422 -15.848 -4.445 -20.833 -10.56 c -0.87 1.492 -1.368 3.228 -1.368 5.082 c 0 3.506 1.784 6.6 4.496 8.412 c -1.656 -0.053 -3.215 -0.508 -4.578 -1.265 c -0.001 0.042 -0.001 0.085 -0.001 0.128 c 0 4.896 3.484 8.98 8.108 9.91 c -0.848 0.23 -1.741 0.354 -2.663 0.354 c -0.652 0 -1.285 -0.063 -1.902 -0.182 c 1.287 4.015 5.019 6.938 9.441 7.019 c -3.459 2.711 -7.816 4.327 -12.552 4.327 c -0.815 0 -1.62 -0.048 -2.411 -0.142 c 4.474 2.869 9.786 4.541 15.493 4.541 c 18.591 0 28.756 -15.4 28.756 -28.756 c 0 -0.438 -0.009 -0.875 -0.028 -1.309 C 49.769 18.873 51.483 17.092 52.837 15.065 z" stroke-linecap="round" />
</g>
</svg>